<?xml version="1.0" encoding="utf-8"?>
<!-- Generator: Adobe Illustrator 27.5.0, SVG Export Plug-In . SVG Version: 6.00 Build 0)  -->
<svg version="1.1" xmlns="http://www.w3.org/2000/svg" xmlns:xlink="http://www.w3.org/1999/xlink" x="0px" y="0px"
	 viewBox="0 0 1200 1200" style="enable-background:new 0 0 1200 1200;" xml:space="preserve">
<g id="Background">
	<rect style="fill:#F7F5F4;" width="1200" height="1200"/>
</g>
<g id="Graphic_Elements">
	<g id="Graphic_Elements_1_">
		<g>
			<path style="fill:#B5D4BE;" d="M621.633,541.223c-2.901,1.956-3.668,5.894-1.711,8.796c1.224,1.816,3.223,2.794,5.26,2.794
				c1.217,0,2.451-0.35,3.536-1.083c1.655-1.116,7.898-4.66,5.226-3.165l71.278,44.462c7.392-6.075,15.216-11.667,23.368-16.699
				l-69.737-41.634l-12.115-7.232l-34.301-20.478c-14.206-7.864-32.396,1.363-37.881,4.536l47.345,29.533
				C621.814,541.112,621.722,541.164,621.633,541.223z"/>
			<path style="fill:#B5D4BE;" d="M811.59,629.292c-0.705-3.168-5.299-6.649-7.413-7.837l-63.326-37.807
				c-0.172,0.125-0.33,0.264-0.517,0.372c-8.272,4.772-16.214,10.192-23.731,16.105l73.276,45.709l8.495-4.906
				c0.173-0.099,0.351-0.192,0.534-0.275c7.358-3.363,10.456-6.241,11.759-8.063C811.787,631.021,811.748,630.003,811.59,629.292z"
				/>
			<path style="fill:#B5D4BE;" d="M804.454,652.051L601.7,769.136c-3.032,1.748-6.904,0.708-8.656-2.321
				c-1.75-3.029-0.712-6.906,2.319-8.657l182.078-105.143l-14.686-9.161c-0.106,0.07-0.195,0.159-0.306,0.224
				c-1.215,0.712-121.992,71.506-166.083,94.811c-16.485,8.645-25.974,18.314-27.458,27.97c-1.248,8.122,3.441,14.718,5.327,16.989
				c8.297,2.693,23.283,3.728,44.826-9.409l6.126-3.632c51.437-30.495,104.625-62.026,157.507-92.1
				c1.875-1.068,3.968-2.138,6.145-3.246c8.312-4.236,17.732-9.038,18.048-16.148c0.124-2.785,0.087-5.588-0.11-8.379
				C806.027,651.312,805.254,651.683,804.454,652.051z"/>
			<path style="fill:#B5D4BE;" d="M679.354,639.907c-2.989,2.036-6.213,4.4-6.631,6.717c-1.666,9.208,11.391,20.749,16.609,25.305
				c27.042-15.613,50.994-29.594,61.313-35.629l-33.904-21.148c-9.138,4.602-17.971,10.929-26.523,17.082
				C686.59,634.842,682.979,637.438,679.354,639.907z"/>
			<path style="fill:#B5D4BE;" d="M462.744,710.665c2.129-19.551,17.051-30.424,30.216-40.018c2.065-1.504,4.114-2.998,6.092-4.508
				c8.649-6.612,49.735-31.225,85.983-52.942c16.618-9.954,32.316-19.359,41.646-25.102c7.828-4.817,15.645-9.651,23.464-14.485
				l-48.406-30.195l-12.081-7.536l-27.394-17.088c-12.856,7.571-36.368,21.443-62.643,37.054c-3.851,2.288-7.758,4.612-11.702,6.959
				c-46.072,27.429-96.792,57.97-112.413,68.668c-7.87,6.491-11.719,12.921-11.44,19.112c0.418,9.304,9.853,16.324,11.041,17.175
				l87.694,51.3C462.475,716.329,462.434,713.517,462.744,710.665z"/>
			<path style="fill:#B5D4BE;" d="M590.462,727.673c19.603-10.36,54.543-30.218,87.296-49.072
				c-8.254-7.492-20.083-19.997-17.507-34.236c1.4-7.738,8.017-12.243,11.971-14.935c3.535-2.407,7.056-4.941,10.597-7.484
				c6.942-4.994,14.064-10.099,21.577-14.496l-42.251-26.355c-9.601,5.943-19.209,11.874-28.822,17.791
				c-9.395,5.783-25.124,15.207-41.776,25.182c-34.181,20.476-76.72,45.962-84.801,52.138c-2.053,1.569-4.18,3.119-6.323,4.681
				c-12.116,8.83-23.56,17.169-25.082,31.151c-0.585,5.371,0.62,10.656,3.304,14.505c0.515,0.739,0.845,1.549,1.012,2.378
				l76.642,44.836c-0.359-2.681-0.398-5.565,0.049-8.618C558.417,751.064,569.895,738.459,590.462,727.673z"/>
		</g>
		<path d="M494.838,552.126c-2.744-2.178-6.729-1.705-8.901,1.04c-2.171,2.744-1.705,6.73,1.04,8.898
			c0.305,0.241,0.633,0.496,0.942,0.74c3.944-2.348,7.851-4.671,11.702-6.959C497.99,554.605,496.388,553.352,494.838,552.126z"/>
		<path style="fill:#FFFFFF;" d="M588.412,379.555c1.29,0.786,2.632,1.524,4.027,2.212
			C591.04,381.082,589.704,380.337,588.412,379.555z"/>
		<path style="fill:#FFFFFF;" d="M627.735,390.667c-11.277-1.186-24.293-3.646-34.738-8.623c10.449,5.019,23.371,7.489,34.645,8.664
			C627.671,390.695,627.706,390.68,627.735,390.667z"/>
		<path style="fill:#FFFFFF;" d="M587.443,378.969c-1.456-0.932-2.85-1.915-4.125-2.987c-2.262-1.699-4.8-3.673-7.588-5.858
			c2.788,2.187,5.326,4.161,7.588,5.862C584.595,377.058,585.992,378.036,587.443,378.969z"/>
		<path style="fill:#1C093E;" d="M823.946,626.476c-2.163-9.539-12.458-15.461-13.437-15.996L618.756,496
			c-23.105-12.788-50.077,4.14-52.752,5.885c-8.668,5.093-167.751,98.567-197.901,119.294c-0.144,0.102-0.286,0.207-0.422,0.319
			c-11.309,9.254-16.784,19.267-16.27,29.765c0.795,16.284,16.117,26.68,16.768,27.113c0.104,0.068,0.209,0.133,0.316,0.198
			L558.662,789.82c1.275,1.024,4.48,3.291,9.411,5.217c0.098,0.038,0.21,0.073,0.31,0.111c4.384,1.675,10.07,3.069,17.11,3.069
			c10.545-0.003,23.99-3.094,40.097-12.915l6.058-3.592c51.389-30.467,104.527-61.971,157.31-91.989
			c1.72-0.978,3.639-1.952,5.633-2.97c10.261-5.229,24.313-12.389,24.955-26.875c0.234-5.257-0.022-10.563-0.756-15.773
			c-0.06-0.424-0.159-0.829-0.296-1.216c0.939-0.95,1.764-1.924,2.48-2.927C823.968,635.774,824.997,631.111,823.946,626.476z
			 M612.438,506.984l34.301,20.478c2.164-1.269,4.248-2.586,6.151-4.049c2.772-2.141,6.751-1.615,8.886,1.157
			c2.133,2.775,1.613,6.754-1.16,8.886c-0.57,0.439-1.177,0.821-1.762,1.238l69.737,41.634
			c-8.152,5.032-15.976,10.623-23.368,16.699l-71.278-44.462c-1.81,1.012-3.57,2.049-5.226,3.165
			c-1.086,0.733-2.319,1.083-3.536,1.083c-2.037,0-4.036-0.978-5.26-2.794c-1.957-2.902-1.19-6.841,1.711-8.796
			c0.088-0.059,0.181-0.111,0.268-0.17l-47.345-29.533C580.042,508.347,598.232,499.121,612.438,506.984z M689.333,671.93
			c-5.218-4.557-18.275-16.098-16.609-25.305c0.418-2.318,3.642-4.681,6.631-6.717c3.625-2.469,7.235-5.065,10.865-7.673
			c8.552-6.153,17.385-12.481,26.523-17.082l33.904,21.148C740.327,642.335,716.375,656.317,689.333,671.93z M375.106,667.76
			c-1.188-0.851-10.623-7.871-11.041-17.175c-0.278-6.191,3.571-12.621,11.44-19.112c15.62-10.698,66.341-41.239,112.413-68.668
			c-0.309-0.244-0.637-0.499-0.942-0.74c-2.744-2.169-3.21-6.154-1.04-8.898c2.172-2.744,6.157-3.218,8.901-1.04
			c1.55,1.225,3.152,2.478,4.782,3.719c26.275-15.612,49.788-29.483,62.643-37.054l27.394,17.088l6.435-3.858
			c3.007-1.791,6.893-0.82,8.693,2.178c1.799,3.001,0.825,6.893-2.177,8.694l-0.869,0.521l48.406,30.195
			c-7.819,4.834-15.636,9.667-23.464,14.485c-9.33,5.743-25.028,15.148-41.646,25.102c-36.248,21.717-77.334,46.33-85.983,52.942
			c-1.979,1.51-4.027,3.004-6.092,4.508c-13.165,9.595-28.088,20.467-30.216,40.018c-0.31,2.852-0.268,5.664,0.056,8.395
			L375.106,667.76z M479.659,728.921c-0.167-0.829-0.497-1.639-1.012-2.378c-2.684-3.849-3.889-9.134-3.304-14.505
			c1.522-13.982,12.966-22.32,25.082-31.151c2.143-1.563,4.27-3.113,6.323-4.681c8.082-6.176,50.62-31.661,84.801-52.138
			c16.652-9.975,32.381-19.4,41.776-25.182c9.613-5.917,19.221-11.848,28.822-17.791l42.251,26.355
			c-7.513,4.397-14.636,9.502-21.577,14.496c-3.541,2.543-7.062,5.077-10.597,7.484c-3.954,2.692-10.571,7.197-11.971,14.935
			c-2.576,14.239,9.253,26.743,17.507,34.236c-32.753,18.854-67.693,38.711-87.296,49.072
			c-20.568,10.786-32.045,23.391-34.112,37.466c-0.448,3.053-0.408,5.937-0.049,8.618L479.659,728.921z M806.886,659.313
			c-0.316,7.11-9.735,11.912-18.048,16.148c-2.177,1.108-4.27,2.178-6.145,3.246c-52.882,30.074-106.07,61.605-157.507,92.1
			l-6.126,3.632c-21.542,13.137-36.529,12.102-44.826,9.409c-1.886-2.272-6.575-8.867-5.327-16.989
			c1.484-9.656,10.973-19.325,27.458-27.97c44.092-23.304,164.869-94.099,166.083-94.811c0.111-0.065,0.2-0.153,0.306-0.224
			l14.686,9.161L595.363,758.158c-3.031,1.751-4.069,5.628-2.319,8.657c1.751,3.029,5.623,4.069,8.656,2.321l202.754-117.085
			c0.8-0.368,1.573-0.74,2.322-1.117C806.973,653.725,807.01,656.529,806.886,659.313z M810.665,632.59
			c-1.303,1.822-4.401,4.7-11.759,8.063c-0.182,0.083-0.36,0.176-0.534,0.275l-8.495,4.906l-73.276-45.709
			c7.518-5.913,15.459-11.333,23.731-16.105c0.188-0.108,0.345-0.247,0.517-0.372l63.326,37.807
			c2.115,1.188,6.708,4.669,7.413,7.837C811.748,630.003,811.787,631.021,810.665,632.59z"/>
		<g>
			<path style="fill:#FFA76D;" d="M815.821,475.895c8.016-11.209-8.561-20.355-8.561-20.355s-19.281-12.854-51.534-30.375
				c-2.71-1.472-8.682,2.77-11.676,3.304c-3.933,0.702-7.956-0.024-11.857,1.138c-3.028,0.902-5.656,2.768-8.433,4.274
				c-11.841,6.421-26.031,6.171-39.495,5.758c-7.147-0.219-14.404-0.457-21.211-2.644c-10.352-3.326-18.742-10.834-26.794-18.142
				c-6.026-5.469-12.244-11.209-15.273-18.762c-3.053-7.614-2.467-16.314,0.079-24.112c2.631-8.06,7.68-15.778,15.352-19.386
				c-6.646-6.447-12.645-10.842-20.73-15.424c-20.709-11.465-46.331,5.719-46.331,5.719s-167.163,98.169-197.662,119.137
				c-31.452,25.734,0,46.702,0,46.702l190.62,111.512c0,0,20.968,19.062,60.045-4.766
				C781.526,525.116,809.166,510.82,809.166,510.82s19.595-7.625,8.844-21.921L815.821,475.895z"/>
			<path style="fill:#F0F0EE;" d="M635.734,417.491c9.086,11.53,23.653,17.696,38.208,19.607
				c14.555,1.911,29.313,0.026,43.863-1.926c2.715-0.364,5.554-0.779,7.768-2.392c1.069-0.779,1.984-1.899,2.125-3.215
				c0.285-2.656-2.459-4.524-4.829-5.757c-22.639-11.773-44.901-24.271-66.742-37.466c-6.314-3.817-11.77-7.936-14.919-14.719
				c-6.787,6.375-12.195,8.209-13.421,18.56C626.65,399.792,629.774,409.929,635.734,417.491z"/>
			<path style="fill:#1C093E;" d="M821.464,486.997c-1.154-1.535-2.87-2.395-4.647-2.516c0.967-0.971,1.815-1.968,2.548-2.995
				c2.993-4.186,4.022-8.849,2.972-13.484c-2.05-9.044-11.409-14.836-13.372-15.962c-2.238-1.482-21.05-13.818-51.827-30.538
				c-2.932-1.587-6.476-1.578-9.497,0.037c-4.185,2.259-11.728,1.163-14.898,0.43l-67.524-38.453
				c-12.882-9.737-13.592-14.882-13.609-15.749c0.029-0.04,0.036-0.088,0.064-0.128c0.34-0.492,0.607-1.023,0.796-1.587
				c0.037-0.111,0.063-0.22,0.093-0.332c0.319-1.15,0.311-2.384-0.069-3.582c-0.039-0.123-0.072-0.241-0.118-0.362
				c-0.039-0.1-0.055-0.203-0.099-0.302c-0.21-0.476-0.486-0.898-0.791-1.293c-0.024-0.031-0.031-0.069-0.056-0.1
				c-1.074-1.34-6.714-6.928-34.284-22.552c-23.116-12.788-50.082,4.134-52.753,5.882c-8.668,5.093-167.751,98.57-197.899,119.297
				c-0.144,0.102-0.286,0.207-0.422,0.319c-11.309,9.254-16.784,19.266-16.27,29.765c0.795,16.284,16.117,26.68,16.768,27.113
				c0.104,0.068,0.209,0.133,0.316,0.198l190.167,111.246c2.418,1.943,11.598,8.397,26.831,8.397
				c10.544-0.003,23.988-3.094,40.096-12.914c149.42-88.579,183.178-106.723,186.249-108.35c2.361-0.984,12.469-5.677,15.11-14.947
				C826.409,499.769,826.609,493.841,821.464,486.997z M752.364,433.334c2.167,1.182,4.259,2.335,6.304,3.471
				c-1.826,1.276-3.694,2.457-5.608,3.499c-11.705,6.374-52.893,25.829-91.454,8.58c-14.5-6.482-25.879-13.063-34.78-20.117
				c-5.221-4.14-9.853-9.063-13.764-14.622c-10.942-15.566-5.993-31.219,1.569-39.895c4.485-5.145,9.817-10.705,15.87-14.017
				c1.75,1.116,3.243,2.099,4.51,2.957c-4.174,2.751-7.943,5.9-11.033,9.445c-9.701,11.126-10.148,26.476-1.166,40.055
				c3.506,5.297,8.201,10.297,13.959,14.861c8.984,7.119,21.104,13.072,34.13,16.76c8.25,2.339,18.685,4.05,29.259,4.05
				c10.962,0,22.073-1.841,31.043-6.723c3.658-1.989,6.295-3.759,9.116-6.076C744.206,435.585,748.511,435.069,752.364,433.334z
				 M657.928,393.891c0.213,0.161,0.436,0.306,0.667,0.439l64.918,36.968c-13.423,6.313-34.601,4.949-49.156,0.823
				c-11.457-3.246-22.01-8.397-29.712-14.502c-4.708-3.731-8.498-7.741-11.262-11.921c-2.777-4.199-8.323-15.015,0.149-24.734
				c1.945-2.231,4.294-4.332,6.918-6.216C642.999,380.71,648.775,387.027,657.928,393.891z M813.153,500.044
				c-0.862,3.079-5.71,5.904-7.896,6.776c-0.21,0.083-0.415,0.176-0.614,0.278c-1.135,0.588-29.613,15.455-187.194,108.87
				c-34.116,20.804-51.805,6.07-52.484,5.489c-0.326-0.297-0.682-0.56-1.063-0.783L373.496,509.289
				c-1.188-0.851-10.623-7.871-11.041-17.175c-0.279-6.191,3.57-12.621,11.44-19.112c30.549-20.925,195.393-117.768,197.058-118.746
				c0.102-0.059,0.212-0.13,0.309-0.195c0.226-0.146,22.723-14.867,39.689-5.473c2.763,1.566,5.265,3.009,7.568,4.358
				c-5.155,3.872-9.595,8.564-13.44,12.975c-11.409,13.088-16.57,35.331-2.382,55.513c4.612,6.556,10.08,12.367,16.258,17.265
				c9.743,7.72,22.003,14.836,37.48,21.757c13.092,5.854,26.355,8.041,38.869,8.041c29.424-0.003,54.7-12.098,63.819-17.06
				c4.028-2.195,7.902-4.841,11.551-7.846c19.764,11.37,31.315,19.031,31.461,19.127c0.133,0.09,0.294,0.186,0.433,0.263
				c2.113,1.188,6.708,4.669,7.413,7.837c0.158,0.712,0.195,1.73-0.925,3.298c-1.304,1.822-4.403,4.703-11.76,8.069
				c-0.181,0.081-0.359,0.173-0.532,0.272l-203.011,117.23c-3.031,1.751-4.069,5.628-2.319,8.657
				c1.751,3.032,5.625,4.066,8.656,2.321l202.755-117.085c2.735-1.262,5.172-2.562,7.32-3.908c-0.305,1.677,0.065,3.471,1.169,4.941
				C812.949,496.762,813.561,498.59,813.153,500.044z"/>
		</g>
		<path style="fill:#1C093E;stroke:#1C093E;stroke-width:3.1683;stroke-miterlimit:10;" d="M408.507,338.78
			c0.156,1.581,1.98,3.382,5.057,5.022l1.021,0.056c16.436,0.857,41.273,2.157,75.731,47.144c0.616,0.73,1.412,1.705,2.231,2.707
			c13.699,16.76,32.456,39.724,89.447,16.253c20.983-8.524,35.566-14.758,45.648-19.254c-11.274-1.175-24.195-3.645-34.645-8.664
			c-0.19-0.091-0.371-0.186-0.559-0.277c-1.395-0.688-2.737-1.426-4.027-2.212c-0.323-0.195-0.653-0.384-0.968-0.585
			c-1.451-0.933-2.849-1.911-4.125-2.984c-2.262-1.701-4.8-3.675-7.588-5.862c-0.93-0.729-1.887-1.481-2.871-2.254
			c-21.405-16.816-53.751-42.227-89.656-54.718l-0.492-0.195c-9.35-4.155-12.724-12.286-13.244-16.439l-0.084-0.662l0.039-0.453
			l0.006-0.067l-53.948,33.27C412.32,331.039,408.214,335.831,408.507,338.78z"/>
		<polygon style="fill:#FFFFFF;" points="469.428,295.336 469.428,295.336 469.422,295.403 		"/>
		<path style="fill:#CA2E32;stroke:#CA2E32;stroke-width:2;stroke-miterlimit:10;" d="M651.584,379.024
			c6-151.507-47.03-163.987-47.568-164.096c-0.435-0.088-0.851-0.222-1.246-0.391c-0.059-0.024-0.124-0.023-0.182-0.049
			c-27.269-12.119-58.298-5.179-58.61-5.111c-0.574,0.135-1.143,0.158-1.706,0.133c-36.999,21.284-51.403,52.295-56.894,70.95
			l-1.281,5.095c-1.204,4.791-1.731,8.293-1.928,9.841c0.284,0.936,1.056,2.763,3.041,4.375c0.05,0.042,0.115,0.079,0.167,0.12
			c0.291,0.227,0.592,0.453,0.934,0.666c0.406,0.254,0.849,0.497,1.333,0.722c33.072,11.569,63.676,33.809,84.661,50.072
			c2.998,2.324,5.8,4.524,8.384,6.555c3.917,3.075,7.396,5.811,10.382,8.051l0.302,0.241
			C604.996,377.776,638.369,379.374,651.584,379.024z"/>
		<path style="fill:#CA2E32;stroke:#CA2E32;stroke-width:2;stroke-miterlimit:10;" d="M692.932,204.801
			c-18.315-9.36-42.45-15.613-74.141-16.951c-1.16-0.049-2.115-0.09-2.842-0.133c-14.721,1.416-27.819,3.978-39.491,7.389
			c9.263,0.83,19.456,2.851,29.451,7.017C615.161,200.531,653.922,194.943,692.932,204.801z"/>
		<path style="fill:#CA2E32;stroke:#CA2E32;stroke-width:2;stroke-miterlimit:10;" d="M624.614,212.664
			c18.468,16.299,43.583,58.175,39.706,164.799c24.315-5.054,52.642-21.628,67.095-36.78c11.623-12.184,16.505-26.343,15.368-44.554
			c-0.527-21.178-5.529-44.299-20.257-63.749c-0.591-0.161-1.169-0.402-1.714-0.746
			C692.015,210.958,648.734,210.732,624.614,212.664z"/>
		<path style="fill:#1C093E;" d="M759.442,295.575c-1.833-73.895-51.593-116.648-140.115-120.386
			c-1.306-0.056-2.313-0.096-2.979-0.148l-0.542-0.04l-0.54,0.049c-103.288,9.731-133.811,74.054-142.509,104.384l-6.328,2.921
			l-57.857,35.625l-0.441,0.297c-1.368,1.012-13.339,10.216-12.242,21.702c0.432,4.517,3.085,10.925,13.275,15.798l1.122,0.535
			l3.638,0.204c14.952,0.78,35.43,1.847,66.492,42.395c0.755,0.907,1.525,1.847,2.317,2.819
			c10.192,12.472,25.25,30.91,56.598,30.906c12.829-0.003,28.394-3.091,47.461-10.944c48.292-19.618,63.656-27.511,68.262-30.179
			c29.955-1.975,67.438-23.114,85.53-42.082C754.62,334.714,760.785,317.02,759.442,295.575z M492.547,393.708
			c-0.818-1.003-1.615-1.977-2.231-2.707c-34.458-44.987-59.296-46.287-75.731-47.144l-1.021-0.056
			c-3.077-1.64-4.901-3.441-5.057-5.022c-0.292-2.949,3.813-7.741,6.974-10.173l53.948-33.27l-0.006,0.067l-0.039,0.453l0.084,0.662
			c0.52,4.152,3.894,12.283,13.244,16.439l0.492,0.195c35.905,12.491,68.251,37.902,89.656,54.718
			c0.984,0.773,1.941,1.525,2.871,2.254c2.788,2.186,5.326,4.16,7.588,5.858c1.275,1.071,2.669,2.055,4.125,2.987
			c0.316,0.202,0.645,0.391,0.968,0.585c1.292,0.782,2.628,1.527,4.027,2.212c0.187,0.091,0.369,0.186,0.559,0.277
			c10.445,4.977,23.461,7.436,34.738,8.623c-0.029,0.013-0.063,0.028-0.093,0.041c-10.082,4.496-24.665,10.729-45.648,19.254
			C525.003,433.433,506.246,410.469,492.547,393.708z M542.272,209.511c0.562,0.025,1.132,0.002,1.706-0.133
			c0.313-0.068,31.341-7.008,58.61,5.111c0.058,0.026,0.123,0.025,0.182,0.049c0.395,0.169,0.811,0.302,1.246,0.391
			c0.537,0.108,53.568,12.588,47.568,164.096c-13.215,0.35-46.588-1.249-60.211-12.825l-0.302-0.241
			c-2.986-2.24-6.465-4.975-10.382-8.051c-2.584-2.031-5.386-4.232-8.384-6.555c-20.985-16.263-51.589-38.503-84.661-50.072
			c-0.484-0.226-0.927-0.469-1.333-0.722c-0.341-0.214-0.643-0.439-0.934-0.666c-0.052-0.041-0.117-0.078-0.167-0.12
			c-1.985-1.612-2.757-3.439-3.041-4.375c0.197-1.548,0.725-5.049,1.928-9.841l1.281-5.095
			C490.869,261.806,505.273,230.795,542.272,209.511z M618.792,187.85c31.691,1.338,55.826,7.591,74.141,16.951
			c-39.01-9.858-77.772-4.27-87.023-2.679c-9.995-4.165-20.188-6.187-29.451-7.017c11.672-3.411,24.769-5.973,39.491-7.389
			C616.677,187.76,617.631,187.8,618.792,187.85z M664.32,377.463c3.877-106.624-21.238-148.501-39.706-164.799
			c24.12-1.931,67.401-1.705,100.198,18.97c0.545,0.344,1.123,0.586,1.714,0.746c14.728,19.45,19.729,42.571,20.257,63.749
			c1.137,18.211-3.745,32.37-15.368,44.554C716.962,355.835,688.635,372.409,664.32,377.463z"/>
	</g>
</g>
<g id="Text">
	<text transform="matrix(1 0 0 1 255.6641 949.4346)"><tspan x="0" y="0" style="fill:#1C093E; font-family:'Asap-Bold'; font-size:105px; letter-spacing:3;">FASHIONL</tspan><tspan x="476.905" y="0" style="fill:#1C093E; font-family:'Asap-Bold'; font-size:105px; letter-spacing:7;">Y</tspan><tspan x="541.059" y="0" style="fill:#1C093E; font-family:'Asap-Bold'; font-size:105px; letter-spacing:3;">TIC</tspan></text>
	<g>
		
			<text transform="matrix(1 0 0 1 369.127 1022.9893)" style="fill:#1C093E; font-family:'Asap-Regular'; font-size:38px; letter-spacing:7;">WEAR IT WITH STYLE</text>
	</g>
</g>
</svg>
